<svg aria-hidden="true" style="position: absolute; width: 0; height: 0; overflow: hidden;" version="1.1" xmlns="http://www.w3.org/2000/svg" xmlns:xlink="http://www.w3.org/1999/xlink">
<defs>
<symbol id="icon-add_circle_outline" viewBox="0 0 24 24">
<path d="M12 20.016q3.281 0 5.648-2.367t2.367-5.648-2.367-5.648-5.648-2.367-5.648 2.367-2.367 5.648 2.367 5.648 5.648 2.367zM12 2.016q4.125 0 7.055 2.93t2.93 7.055-2.93 7.055-7.055 2.93-7.055-2.93-2.93-7.055 2.93-7.055 7.055-2.93zM12.984 6.984v4.031h4.031v1.969h-4.031v4.031h-1.969v-4.031h-4.031v-1.969h4.031v-4.031h1.969z"></path>
</symbol>
<symbol id="icon-grid" viewBox="0 0 32 32">
<path d="M7 12h-6c-0.553 0-1 0.447-1 1v6c0 0.553 0.447 1 1 1h6c0.553 0 1-0.447 1-1v-6c0-0.553-0.447-1-1-1zM6 17c0 0.553-0.447 1-1 1h-2c-0.553 0-1-0.447-1-1v-2c0-0.553 0.447-1 1-1h2c0.553 0 1 0.447 1 1v2zM7 0h-6c-0.553 0-1 0.447-1 1v6c0 0.553 0.447 1 1 1h6c0.553 0 1-1.447 1-2v-5c0-0.553-0.447-1-1-1zM6 5c0 0.553-0.447 1-1 1h-2c-0.553 0-1-0.447-1-1v-2c0-0.553 0.447-1 1-1h2c0.553 0 1 0.447 1 1v2zM7 24h-6c-0.553 0-1 0.447-1 1v6c0 0.553 0.447 1 1 1h6c0.553 0 1-0.447 1-1v-6c0-0.553-0.447-1-1-1zM6 29c0 0.553-0.447 1-1 1h-2c-0.553 0-1-0.447-1-1v-2c0-0.553 0.447-1 1-1h2c0.553 0 1 0.447 1 1v2zM19 12h-6c-0.553 0-1 0.447-1 1v6c0 0.553 0.447 1 1 1h6c0.553 0 1-0.447 1-1v-6c0-0.553-0.447-1-1-1zM18 17c0 0.553-0.447 1-1 1h-2c-0.553 0-1-0.447-1-1v-2c0-0.553 0.447-1 1-1h2c0.553 0 1 0.447 1 1v2zM19 24h-6c-0.553 0-1 0.447-1 1v6c0 0.553 0.447 1 1 1h6c0.553 0 1-0.447 1-1v-6c0-0.553-0.447-1-1-1zM18 29c0 0.553-0.447 1-1 1h-2c-0.553 0-1-0.447-1-1v-2c0-0.553 0.447-1 1-1h2c0.553 0 1 0.447 1 1v2zM31 12h-6c-0.553 0-1 0.447-1 1v6c0 0.553 0.447 1 1 1h6c0.553 0 1-0.447 1-1v-6c0-0.553-0.447-1-1-1zM30 17c0 0.553-0.447 1-1 1h-2c-0.553 0-1-0.447-1-1v-2c0-0.553 0.447-1 1-1h2c0.553 0 1 0.447 1 1v2zM31 0h-6c-0.553 0-1 0.447-1 1v6c0 0.553 0.447 1 1 1h6c0.553 0 1-1.447 1-2v-5c0-0.553-0.447-1-1-1zM30 5c0 0.553-0.447 1-1 1h-2c-0.553 0-1-0.447-1-1v-2c0-0.553 0.447-1 1-1h2c0.553 0 1 0.447 1 1v2zM19 0h-6c-0.553 0-1 0.447-1 1v6c0 0.553 0.447 1 1 1h6c0.553 0 1-1.447 1-2v-5c0-0.553-0.447-1-1-1zM18 5c0 0.553-0.447 1-1 1h-2c-0.553 0-1-0.447-1-1v-2c0-0.553 0.447-1 1-1h2c0.553 0 1 0.447 1 1v2zM31 24h-6c-0.553 0-1 0.447-1 1v6c0 0.553 0.447 1 1 1h6c0.553 0 1-0.447 1-1v-6c0-0.553-0.447-1-1-1zM30 29c0 0.553-0.447 1-1 1h-2c-0.553 0-1-0.447-1-1v-2c0-0.553 0.447-1 1-1h2c0.553 0 1 0.447 1 1v2z"></path>
</symbol>
<symbol id="icon-calculator" viewBox="0 0 32 32">
<path d="M12 2h-10c-1.1 0-2 0.9-2 2v10c0 1.1 0.9 2 2 2h10c1.1 0 2-0.9 2-2v-10c0-1.1-0.9-2-2-2zM12 10h-10v-2h10v2zM28 2h-10c-1.1 0-2 0.9-2 2v26c0 1.1 0.9 2 2 2h10c1.1 0 2-0.9 2-2v-26c0-1.1-0.9-2-2-2zM28 20h-10v-2h10v2zM28 14h-10v-2h10v2zM12 18h-10c-1.1 0-2 0.9-2 2v10c0 1.1 0.9 2 2 2h10c1.1 0 2-0.9 2-2v-10c0-1.1-0.9-2-2-2zM12 26h-4v4h-2v-4h-4v-2h4v-4h2v4h4v2z"></path>
</symbol>
<symbol id="icon-bell" viewBox="0 0 32 32">
<path d="M32.047 25c0-9-8-7-8-14 0-0.58-0.056-1.076-0.158-1.498-0.526-3.532-2.88-6.366-5.93-7.23 0.027-0.123 0.041-0.251 0.041-0.382 0-1.040-0.9-1.891-2-1.891s-2 0.851-2 1.891c0 0.131 0.014 0.258 0.041 0.382-3.421 0.969-5.966 4.416-6.039 8.545-0.001 0.060-0.002 0.121-0.002 0.183 0 7-8 5-8 14 0 2.382 5.331 4.375 12.468 4.878 0.673 1.263 2.002 2.122 3.532 2.122s2.86-0.86 3.532-2.122c7.137-0.503 12.468-2.495 12.468-4.878 0-0.007-0.001-0.014-0.001-0.021l0.048 0.021zM25.82 26.691c-1.695 0.452-3.692 0.777-5.837 0.958-0.178-2.044-1.893-3.648-3.984-3.648s-3.805 1.604-3.984 3.648c-2.144-0.18-4.142-0.506-5.837-0.958-2.332-0.622-3.447-1.318-3.855-1.691 0.408-0.372 1.523-1.068 3.855-1.691 2.712-0.724 6.199-1.122 9.82-1.122s7.109 0.398 9.82 1.122c2.332 0.622 3.447 1.318 3.855 1.691-0.408 0.372-1.523 1.068-3.855 1.691z"></path>
</symbol>
<symbol id="icon-menu" viewBox="0 0 32 32">
<path d="M2 6h28v6h-28zM2 14h28v6h-28zM2 22h28v6h-28z"></path>
</symbol>
</defs>
</svg>
